<?xml version="1.0" encoding="utf-8"?>
<!-- Generator: Adobe Illustrator 16.0.0, SVG Export Plug-In . SVG Version: 6.00 Build 0)  -->
<!DOCTYPE svg PUBLIC "-//W3C//DTD SVG 1.1//EN" "http://www.w3.org/Graphics/SVG/1.1/DTD/svg11.dtd">
<svg version="1.1" id="圖層_1" xmlns="http://www.w3.org/2000/svg" xmlns:xlink="http://www.w3.org/1999/xlink" x="0px" y="0px"
	 width="250px" height="250px" viewBox="0.14 841.445 250 250" enable-background="new 0.14 841.445 250 250" xml:space="preserve">
<g>
	<path d="M213.007,919.395c7.448-5.751,12.251-14.762,12.251-24.898c0-17.365-14.078-31.444-31.443-31.444
		c-10.811,0-20.344,5.456-26.002,13.762C187.007,885.875,202.86,900.847,213.007,919.395z"/>
	<path d="M125.141,882.481c-41.576,0-76.147,29.897-83.449,69.359c11.633-7.93,25.688-12.57,40.827-12.57
		c40.087,0,72.586,32.498,72.586,72.586c0,14.033-3.994,27.128-10.891,38.232c37.696-8.658,65.821-42.391,65.821-82.715
		C210.034,920.489,172.027,882.481,125.141,882.481z"/>
	<path d="M197.907,1036.113c18.688,9.421,31.443,13.202,34.314,9.26c2.873-3.941-4.634-14.917-19.324-29.81l-3.98,6.616
		c4.84,5.404,7.05,9.125,5.99,10.581c-1.063,1.456-5.284,0.492-11.918-2.459L197.907,1036.113z M41.369,912.577
		c-4.843-5.408-7.057-9.131-5.994-10.589c1.061-1.456,5.283-0.492,11.917,2.459l5.082-5.811
		c-18.689-9.422-31.443-13.203-34.315-9.262c-2.871,3.942,4.635,14.918,19.326,29.811L41.369,912.577z"/>
	<circle cx="82.519" cy="1011.856" r="57.982"/>
</g>
</svg>
