<?xml version="1.0" encoding="utf-8"?>
<svg xmlns="http://www.w3.org/2000/svg" xmlns:xlink="http://www.w3.org/1999/xlink" style="display:none">

  <!-- 各 symbol 的 viewBox 對應原始 100x100 格子的座標範圍 -->
  <!-- 原始格子起點: x=-180.336 y=540.049，每格 100x100   -->
  <!-- 欄0 x=-180.336  欄1 x=-80.336  欄2 x=19.664        -->
  <!-- 列0 y=540.049   列1 y=640.049  列2 y=740.049        -->

  <symbol id="mercury" viewBox="-180.336 540.049 100 100">
    <path d="M-114.841,590.049c0,8.561-6.935,15.494-15.495,15.494c-8.56,0-15.495-6.934-15.495-15.494
      c0-8.555,6.936-15.494,15.495-15.494C-121.775,574.555-114.841,581.496-114.841,590.049z"/>
  </symbol>

  <symbol id="venus" viewBox="-80.336 540.049 100 100">
    <path d="M-30.336,568.732c-11.775,0-21.318,9.545-21.318,21.323c0,11.771,9.543,21.312,21.318,21.312
      c11.776,0,21.319-9.54,21.319-21.312C-9.018,578.277-18.562,568.732-30.336,568.732z M-39.818,576.783
      c-3.417,2.184-6.679,3.176-7.29,2.223c-0.609-0.955,1.664-3.498,5.079-5.683c3.417-2.184,6.679-3.178,7.291-2.227
      C-34.131,572.055-36.405,574.598-39.818,576.783z M-19.63,607.211c-4.952,3.162-10.093,3.961-11.484,1.785
      c-1.394-2.181,1.49-6.513,6.438-9.678c4.953-3.166,10.094-3.968,11.489-1.789C-11.799,599.712-14.681,604.044-19.63,607.211z"/>
  </symbol>

  <symbol id="earth" viewBox="19.664 540.049 100 100">
    <path d="M62.559,575.731c11.36,0,20.568,9.209,20.568,20.568s-9.208,20.566-20.568,20.566
      c-11.358,0-20.567-9.207-20.567-20.566S51.2,575.731,62.559,575.731z M97.337,570.086c0,3.791-3.069,6.859-6.857,6.859
      c-3.787,0-6.854-3.068-6.854-6.859c0-3.783,3.067-6.854,6.854-6.854C94.267,563.233,97.337,566.305,97.337,570.086z"/>
  </symbol>

  <symbol id="mars" viewBox="-180.336 640.049 100 100">
    <path d="M-112.581,690.056c0,9.859-7.992,17.854-17.853,17.854c-9.858,0-17.851-7.994-17.851-17.854
      c0-9.863,7.992-17.854,17.851-17.854C-120.573,672.202-112.581,680.193-112.581,690.056z M-152.556,663.274
      c0,2.466-1.999,4.459-4.462,4.459c-2.467,0-4.465-1.992-4.465-4.459c0-2.466,1.999-4.465,4.465-4.465
      C-154.555,658.809-152.556,660.808-152.556,663.274z M-99.189,716.828c0,2.465-1.999,4.461-4.462,4.461
      c-2.467,0-4.462-1.993-4.462-4.461c0-2.469,1.995-4.463,4.462-4.463C-101.188,712.365-99.189,714.362-99.189,716.828z"/>
  </symbol>

  <symbol id="jupiter" viewBox="-80.336 640.049 100 100">
    <path d="M-10.922,668.895c-0.931-0.859-1.925-1.652-2.966-2.383l-39.983,39.984c0.729,1.041,1.523,2.033,2.383,2.965
      L-10.922,668.895z M-58.727,694.498l32.842-32.842c-0.918-0.141-1.851-0.242-2.798-0.295l-30.339,30.338
      C-58.969,692.645-58.868,693.578-58.727,694.498z M-1.648,690.024c0-4.158-0.89-8.107-2.48-11.67l-37.902,37.902
      c3.567,1.588,7.513,2.48,11.67,2.48c0.551,0,1.099-0.021,1.644-0.051l27.019-27.018C-1.667,691.121-1.648,690.574-1.648,690.024z
       M-22.658,717.68c9.664-2.686,17.271-10.291,19.957-19.955L-22.658,717.68z M-6.524,674.008c-0.815-1.209-1.726-2.357-2.713-3.428
      l-40.565,40.566c1.073,0.984,2.217,1.895,3.431,2.709L-6.524,674.008z M-32.054,661.362c-14.51,0.846-26.123,12.459-26.97,26.969
      L-32.054,661.362z"/>
  </symbol>

  <symbol id="saturn" viewBox="19.664 640.049 100 100">
    <path d="M85.415,675.273c-3.985-5.094-10.174-8.384-17.142-8.384c-12.026,0-21.768,9.742-21.768,21.764
      c0,6.97,3.287,13.163,8.386,17.146c4.271-2.736,10.293-7.765,16.526-14C77.653,685.569,82.676,679.549,85.415,675.273z
       M74.31,694.696c-5.262,5.263-10.421,9.948-15.053,13.753c2.75,1.256,5.795,1.974,9.016,1.974c12.019,0,21.762-9.746,21.762-21.768
      c0-3.218-0.715-6.262-1.972-9.012C84.257,684.272,79.574,689.434,74.31,694.696z M97.92,661.795
      c-1.648-1.649-8.307,2.115-16.992,9.153l0.611,0.455c3.002-1.926,5.138-2.72,5.865-1.991s-0.078,2.873-1.992,5.862
      c1.043,1.342,1.938,2.802,2.651,4.367C95.547,670.541,99.621,663.493,97.92,661.795z M49.031,707.788
      c-0.729-0.727,0.061-2.862,1.987-5.862l-0.456-0.61c-7.035,8.682-10.803,15.345-9.153,16.986c1.7,1.705,8.746-2.373,17.848-9.854
      c-1.564-0.713-3.028-1.604-4.366-2.649C51.899,707.712,49.76,708.517,49.031,707.788z"/>
  </symbol>

  <symbol id="uranus" viewBox="-180.336 740.049 100 100">
    <path d="M-107.236,790.048c0-10.846-7.488-19.92-17.564-22.402c1.775,5.436,2.901,13.45,2.901,22.402
      c0,8.951-1.126,16.97-2.901,22.402C-114.723,809.968-107.236,800.896-107.236,790.048z M-129.556,766.989
      c-0.261-0.009-0.516-0.035-0.78-0.035c-12.759,0-23.1,10.339-23.1,23.098c0,12.758,10.342,23.1,23.1,23.1
      c0.264,0,0.519-0.031,0.78-0.038c2.397-4.236,4.048-12.956,4.048-23.062C-125.508,779.945-127.159,771.221-129.556,766.989z
       M-130.301,760.404c-1.729,0-3.334,1.84-4.668,4.991c0.682-0.738,1.401-1.137,2.15-1.137c1.175,0,2.278,0.997,3.263,2.729
      c1.632,0.054,3.225,0.28,4.756,0.656C-126.278,763.14-128.199,760.404-130.301,760.404z M-132.819,815.842
      c-0.749,0-1.468-0.403-2.15-1.139c1.334,3.147,2.94,4.991,4.668,4.991c2.102,0,4.022-2.734,5.5-7.245
      c-1.532,0.379-3.124,0.602-4.756,0.659C-130.541,814.842-131.644,815.842-132.819,815.842z"/>
  </symbol>

  <symbol id="neptune" viewBox="-80.336 740.049 100 100">
    <path d="M-30.374,763.094c-14.381,0-26.101,11.271-26.882,25.455h11.569l-11.542,3.514
      c0.095,1.268,0.262,2.52,0.528,3.734h13.392l-12.271,3.736c3.845,10.201,13.664,17.471,25.208,17.471
      c14.888,0,26.957-12.068,26.957-26.957C-3.417,775.162-15.486,763.094-30.374,763.094z"/>
  </symbol>

  <symbol id="pluto" viewBox="19.664 740.049 100 100">
    <path d="M79.664,790.049c0,5.521-4.479,10-10,10c-5.523,0-10-4.479-10-10c0-5.523,4.477-10,10-10
      C75.186,780.049,79.664,784.526,79.664,790.049z M69.664,815.049c-2.762,0-5,2.238-5,5c0,2.761,2.238,5,5,5c2.761,0,5-2.239,5-5
      C74.664,817.287,72.425,815.049,69.664,815.049z M39.664,815.049c-2.762,0-5,2.238-5,5c0,2.761,2.238,5,5,5c2.761,0,5-2.239,5-5
      C44.664,817.287,42.425,815.049,39.664,815.049z M39.664,785.049c-2.762,0-5,2.238-5,5c0,2.761,2.238,5,5,5c2.761,0,5-2.239,5-5
      C44.664,787.287,42.425,785.049,39.664,785.049z M97.664,751.874c-4.143,0-7.5,3.357-7.5,7.5c0,4.142,3.357,7.5,7.5,7.5
      c4.142,0,7.5-3.358,7.5-7.5C105.164,755.232,101.806,751.874,97.664,751.874z"/>
  </symbol>

</svg>